<mxfile host="Electron" agent="Mozilla/5.0 (Windows NT 10.0; Win64; x64) AppleWebKit/537.36 (KHTML, like Gecko) draw.io/24.7.8 Chrome/128.0.6613.36 Electron/32.0.1 Safari/537.36" version="24.7.8">
  <diagram name="Path-1" id="yvvO-IFKYV9TJU07ftuM">
    <mxGraphModel dx="934" dy="621" grid="1" gridSize="10" guides="1" tooltips="1" connect="1" arrows="1" fold="1" page="1" pageScale="1" pageWidth="850" pageHeight="1100" math="0" shadow="0">
      <root>
        <mxCell id="0" />
        <mxCell id="1" parent="0" />
        <mxCell id="ThWdQmo8D_hqyAFHzQaa-1" style="edgeStyle=orthogonalEdgeStyle;rounded=0;orthogonalLoop=1;jettySize=auto;html=1;exitX=0.5;exitY=1;exitDx=0;exitDy=0;entryX=0.5;entryY=0;entryDx=0;entryDy=0;" edge="1" parent="1" source="ThWdQmo8D_hqyAFHzQaa-2" target="ThWdQmo8D_hqyAFHzQaa-39">
          <mxGeometry relative="1" as="geometry">
            <mxPoint x="430" y="90" as="targetPoint" />
          </mxGeometry>
        </mxCell>
        <mxCell id="ThWdQmo8D_hqyAFHzQaa-2" value="Write File&lt;div&gt;#1: Pathes&lt;/div&gt;&lt;div&gt;#2: Start Size&lt;/div&gt;&lt;div&gt;#3: Length&lt;/div&gt;" style="shape=hexagon;perimeter=hexagonPerimeter2;whiteSpace=wrap;html=1;fixedSize=1;fontFamily=Courier New;fontSize=14;" vertex="1" parent="1">
          <mxGeometry x="240" width="200" height="80" as="geometry" />
        </mxCell>
        <mxCell id="ThWdQmo8D_hqyAFHzQaa-36" style="edgeStyle=orthogonalEdgeStyle;rounded=0;orthogonalLoop=1;jettySize=auto;html=1;exitX=1;exitY=0.5;exitDx=0;exitDy=0;entryX=0;entryY=0.5;entryDx=0;entryDy=0;" edge="1" parent="1" source="ThWdQmo8D_hqyAFHzQaa-39" target="ThWdQmo8D_hqyAFHzQaa-41">
          <mxGeometry relative="1" as="geometry">
            <mxPoint x="590" y="200" as="targetPoint" />
            <mxPoint x="450" y="170" as="sourcePoint" />
          </mxGeometry>
        </mxCell>
        <mxCell id="ThWdQmo8D_hqyAFHzQaa-37" style="edgeStyle=orthogonalEdgeStyle;rounded=0;orthogonalLoop=1;jettySize=auto;html=1;exitX=0.5;exitY=1;exitDx=0;exitDy=0;entryX=1;entryY=0.5;entryDx=0;entryDy=0;" edge="1" parent="1" source="ThWdQmo8D_hqyAFHzQaa-39" target="ThWdQmo8D_hqyAFHzQaa-42">
          <mxGeometry relative="1" as="geometry" />
        </mxCell>
        <mxCell id="ThWdQmo8D_hqyAFHzQaa-38" style="edgeStyle=orthogonalEdgeStyle;rounded=0;orthogonalLoop=1;jettySize=auto;html=1;exitX=0.5;exitY=1;exitDx=0;exitDy=0;entryX=1;entryY=0.5;entryDx=0;entryDy=0;" edge="1" parent="1" source="ThWdQmo8D_hqyAFHzQaa-39" target="ThWdQmo8D_hqyAFHzQaa-43">
          <mxGeometry relative="1" as="geometry" />
        </mxCell>
        <mxCell id="ThWdQmo8D_hqyAFHzQaa-45" style="edgeStyle=orthogonalEdgeStyle;rounded=0;orthogonalLoop=1;jettySize=auto;html=1;exitX=0.5;exitY=1;exitDx=0;exitDy=0;entryX=0.5;entryY=0;entryDx=0;entryDy=0;" edge="1" parent="1" source="ThWdQmo8D_hqyAFHzQaa-39" target="ThWdQmo8D_hqyAFHzQaa-44">
          <mxGeometry relative="1" as="geometry" />
        </mxCell>
        <mxCell id="ThWdQmo8D_hqyAFHzQaa-39" value="&lt;span style=&quot;font-size: 14px;&quot;&gt;Search the &#39;pathes&#39;&lt;/span&gt;" style="rounded=1;whiteSpace=wrap;html=1;fontFamily=Courier New;fontSize=13;" vertex="1" parent="1">
          <mxGeometry x="240" y="130" width="200" height="60" as="geometry" />
        </mxCell>
        <mxCell id="ThWdQmo8D_hqyAFHzQaa-40" value="IF the pathes is not found" style="text;html=1;align=center;verticalAlign=middle;whiteSpace=wrap;rounded=0;fontFamily=Courier New;fontSize=14;" vertex="1" parent="1">
          <mxGeometry x="460" y="125" width="170" height="30" as="geometry" />
        </mxCell>
        <mxCell id="ThWdQmo8D_hqyAFHzQaa-41" value="&lt;div&gt;&lt;font style=&quot;font-size: 14px;&quot;&gt;Return&lt;/font&gt;&lt;/div&gt;E_FileOrDirectoryNotFound" style="shape=parallelogram;perimeter=parallelogramPerimeter;whiteSpace=wrap;html=1;fixedSize=1;fontFamily=Courier New;fontSize=12;" vertex="1" parent="1">
          <mxGeometry x="630" y="120" width="220" height="80" as="geometry" />
        </mxCell>
        <mxCell id="ThWdQmo8D_hqyAFHzQaa-42" value="@1: &#39;Pathes[-1]&#39; directory entry" style="rounded=0;whiteSpace=wrap;html=1;fontFamily=Courier New;fontSize=14;" vertex="1" parent="1">
          <mxGeometry y="200" width="200" height="40" as="geometry" />
        </mxCell>
        <mxCell id="ThWdQmo8D_hqyAFHzQaa-43" value="@2: &#39;Pathes[-1]&#39; cluster number" style="rounded=0;whiteSpace=wrap;html=1;fontFamily=Courier New;fontSize=14;" vertex="1" parent="1">
          <mxGeometry y="240" width="200" height="40" as="geometry" />
        </mxCell>
        <mxCell id="ThWdQmo8D_hqyAFHzQaa-47" style="edgeStyle=orthogonalEdgeStyle;rounded=0;orthogonalLoop=1;jettySize=auto;html=1;exitX=0.5;exitY=1;exitDx=0;exitDy=0;entryX=0.5;entryY=0;entryDx=0;entryDy=0;" edge="1" parent="1" source="ThWdQmo8D_hqyAFHzQaa-44" target="ThWdQmo8D_hqyAFHzQaa-46">
          <mxGeometry relative="1" as="geometry" />
        </mxCell>
        <mxCell id="ThWdQmo8D_hqyAFHzQaa-55" style="edgeStyle=orthogonalEdgeStyle;rounded=0;orthogonalLoop=1;jettySize=auto;html=1;exitX=0;exitY=0.5;exitDx=0;exitDy=0;entryX=0;entryY=0.5;entryDx=0;entryDy=0;" edge="1" parent="1" source="ThWdQmo8D_hqyAFHzQaa-44" target="ThWdQmo8D_hqyAFHzQaa-52">
          <mxGeometry relative="1" as="geometry">
            <Array as="points">
              <mxPoint x="140" y="350" />
              <mxPoint x="140" y="630" />
            </Array>
          </mxGeometry>
        </mxCell>
        <mxCell id="ThWdQmo8D_hqyAFHzQaa-44" value="&lt;span style=&quot;font-size: 14px;&quot;&gt;Calculate the clusters&lt;/span&gt;" style="rounded=1;whiteSpace=wrap;html=1;fontFamily=Courier New;fontSize=13;" vertex="1" parent="1">
          <mxGeometry x="240" y="320" width="200" height="60" as="geometry" />
        </mxCell>
        <mxCell id="ThWdQmo8D_hqyAFHzQaa-50" style="edgeStyle=orthogonalEdgeStyle;rounded=0;orthogonalLoop=1;jettySize=auto;html=1;exitX=1;exitY=0.5;exitDx=0;exitDy=0;entryX=0;entryY=0.5;entryDx=0;entryDy=0;" edge="1" parent="1" source="ThWdQmo8D_hqyAFHzQaa-46" target="ThWdQmo8D_hqyAFHzQaa-49">
          <mxGeometry relative="1" as="geometry" />
        </mxCell>
        <mxCell id="ThWdQmo8D_hqyAFHzQaa-53" style="edgeStyle=orthogonalEdgeStyle;rounded=0;orthogonalLoop=1;jettySize=auto;html=1;exitX=0.5;exitY=1;exitDx=0;exitDy=0;entryX=0.5;entryY=0;entryDx=0;entryDy=0;" edge="1" parent="1" source="ThWdQmo8D_hqyAFHzQaa-46" target="ThWdQmo8D_hqyAFHzQaa-52">
          <mxGeometry relative="1" as="geometry" />
        </mxCell>
        <mxCell id="ThWdQmo8D_hqyAFHzQaa-46" value="&lt;span style=&quot;font-size: 14px;&quot;&gt;Allocate clusters for cluster chain @2&lt;/span&gt;" style="rounded=1;whiteSpace=wrap;html=1;fontFamily=Courier New;fontSize=13;" vertex="1" parent="1">
          <mxGeometry x="240" y="460" width="200" height="60" as="geometry" />
        </mxCell>
        <mxCell id="ThWdQmo8D_hqyAFHzQaa-48" value="ELSE" style="text;html=1;align=left;verticalAlign=middle;whiteSpace=wrap;rounded=0;fontFamily=Courier New;fontSize=14;" vertex="1" parent="1">
          <mxGeometry x="340" y="280" width="170" height="30" as="geometry" />
        </mxCell>
        <mxCell id="ThWdQmo8D_hqyAFHzQaa-49" value="&lt;div&gt;&lt;font&gt;Return&lt;/font&gt;&lt;/div&gt;&lt;font&gt;E_NoSpace&lt;/font&gt;" style="shape=parallelogram;perimeter=parallelogramPerimeter;whiteSpace=wrap;html=1;fixedSize=1;fontFamily=Courier New;fontSize=14;" vertex="1" parent="1">
          <mxGeometry x="630" y="450" width="220" height="80" as="geometry" />
        </mxCell>
        <mxCell id="ThWdQmo8D_hqyAFHzQaa-51" value="IF none available" style="text;html=1;align=center;verticalAlign=middle;whiteSpace=wrap;rounded=0;fontFamily=Courier New;fontSize=14;" vertex="1" parent="1">
          <mxGeometry x="495" y="455" width="100" height="30" as="geometry" />
        </mxCell>
        <mxCell id="ThWdQmo8D_hqyAFHzQaa-59" style="edgeStyle=orthogonalEdgeStyle;rounded=0;orthogonalLoop=1;jettySize=auto;html=1;exitX=0.5;exitY=1;exitDx=0;exitDy=0;entryX=0.5;entryY=0;entryDx=0;entryDy=0;" edge="1" parent="1" source="ThWdQmo8D_hqyAFHzQaa-52" target="ThWdQmo8D_hqyAFHzQaa-58">
          <mxGeometry relative="1" as="geometry" />
        </mxCell>
        <mxCell id="ThWdQmo8D_hqyAFHzQaa-52" value="&lt;span style=&quot;font-size: 14px;&quot;&gt;Write the data&lt;/span&gt;&lt;div&gt;&lt;span style=&quot;font-size: 14px;&quot;&gt;Mark the file size&lt;/span&gt;&lt;/div&gt;" style="rounded=1;whiteSpace=wrap;html=1;fontFamily=Courier New;fontSize=13;" vertex="1" parent="1">
          <mxGeometry x="240" y="600" width="200" height="60" as="geometry" />
        </mxCell>
        <mxCell id="ThWdQmo8D_hqyAFHzQaa-54" value="ELSE" style="text;html=1;align=left;verticalAlign=middle;whiteSpace=wrap;rounded=0;fontFamily=Courier New;fontSize=14;" vertex="1" parent="1">
          <mxGeometry x="340" y="570" width="170" height="30" as="geometry" />
        </mxCell>
        <mxCell id="ThWdQmo8D_hqyAFHzQaa-56" value="ELSE" style="text;html=1;align=center;verticalAlign=middle;whiteSpace=wrap;rounded=0;fontFamily=Courier New;fontSize=14;" vertex="1" parent="1">
          <mxGeometry x="110" y="325" width="170" height="30" as="geometry" />
        </mxCell>
        <mxCell id="ThWdQmo8D_hqyAFHzQaa-57" value="IF more clusters are needed" style="text;html=1;align=left;verticalAlign=middle;whiteSpace=wrap;rounded=0;fontFamily=Courier New;fontSize=14;" vertex="1" parent="1">
          <mxGeometry x="340" y="420" width="150" height="30" as="geometry" />
        </mxCell>
        <mxCell id="ThWdQmo8D_hqyAFHzQaa-58" value="&lt;div&gt;&lt;font&gt;Return&lt;/font&gt;&lt;/div&gt;&lt;span&gt;as success&lt;/span&gt;" style="shape=parallelogram;perimeter=parallelogramPerimeter;whiteSpace=wrap;html=1;fixedSize=1;fontFamily=Courier New;fontSize=14;" vertex="1" parent="1">
          <mxGeometry x="230" y="720" width="220" height="80" as="geometry" />
        </mxCell>
      </root>
    </mxGraphModel>
  </diagram>
</mxfile>
